<mxfile host="app.diagrams.net" agent="Mozilla/5.0 (Windows NT 10.0; Win64; x64) AppleWebKit/537.36 (KHTML, like Gecko) Chrome/135.0.0.0 Safari/537.36 OPR/120.0.0.0" version="28.2.0">
  <diagram name="PÃ¡gina-1" id="UvW-NqLeTe5gVryHDD0s">
    <mxGraphModel grid="1" page="1" gridSize="10" guides="1" tooltips="1" connect="1" arrows="1" fold="1" pageScale="1" pageWidth="827" pageHeight="1169" math="0" shadow="0">
      <root>
        <mxCell id="0" />
        <mxCell id="1" parent="0" />
        <mxCell id="4JDZarzx-ppBLxx8kTgk-2" value="Email" style="rounded=0;whiteSpace=wrap;html=1;" vertex="1" parent="1">
          <mxGeometry x="10" y="100" width="120" height="60" as="geometry" />
        </mxCell>
        <mxCell id="4JDZarzx-ppBLxx8kTgk-3" value="Checklist" style="rounded=0;whiteSpace=wrap;html=1;" vertex="1" parent="1">
          <mxGeometry x="240" y="260" width="120" height="60" as="geometry" />
        </mxCell>
        <mxCell id="4JDZarzx-ppBLxx8kTgk-4" value="NC" style="rounded=0;whiteSpace=wrap;html=1;" vertex="1" parent="1">
          <mxGeometry x="240" y="100" width="120" height="60" as="geometry" />
        </mxCell>
        <mxCell id="4JDZarzx-ppBLxx8kTgk-5" value="Escalonamento" style="rounded=0;whiteSpace=wrap;html=1;" vertex="1" parent="1">
          <mxGeometry x="240" y="-50" width="120" height="60" as="geometry" />
        </mxCell>
        <mxCell id="4JDZarzx-ppBLxx8kTgk-7" value="Item" style="rounded=0;whiteSpace=wrap;html=1;" vertex="1" parent="1">
          <mxGeometry x="480" y="260" width="120" height="60" as="geometry" />
        </mxCell>
        <mxCell id="4JDZarzx-ppBLxx8kTgk-8" value="" style="endArrow=none;html=1;rounded=0;entryX=0;entryY=0.5;entryDx=0;entryDy=0;exitX=1;exitY=0.5;exitDx=0;exitDy=0;" edge="1" parent="1" source="4JDZarzx-ppBLxx8kTgk-3" target="4JDZarzx-ppBLxx8kTgk-7">
          <mxGeometry width="50" height="50" relative="1" as="geometry">
            <mxPoint x="520" y="380" as="sourcePoint" />
            <mxPoint x="570" y="330" as="targetPoint" />
          </mxGeometry>
        </mxCell>
        <mxCell id="4JDZarzx-ppBLxx8kTgk-12" value="" style="endArrow=none;html=1;rounded=0;entryX=0.5;entryY=0;entryDx=0;entryDy=0;exitX=0.5;exitY=1;exitDx=0;exitDy=0;" edge="1" parent="1" source="4JDZarzx-ppBLxx8kTgk-4" target="4JDZarzx-ppBLxx8kTgk-3">
          <mxGeometry width="50" height="50" relative="1" as="geometry">
            <mxPoint x="550" y="380" as="sourcePoint" />
            <mxPoint x="600" y="330" as="targetPoint" />
          </mxGeometry>
        </mxCell>
        <mxCell id="4JDZarzx-ppBLxx8kTgk-13" value="" style="endArrow=none;html=1;rounded=0;entryX=0.5;entryY=0;entryDx=0;entryDy=0;exitX=0.5;exitY=1;exitDx=0;exitDy=0;" edge="1" parent="1" source="4JDZarzx-ppBLxx8kTgk-5" target="4JDZarzx-ppBLxx8kTgk-4">
          <mxGeometry width="50" height="50" relative="1" as="geometry">
            <mxPoint x="550" y="380" as="sourcePoint" />
            <mxPoint x="600" y="330" as="targetPoint" />
          </mxGeometry>
        </mxCell>
        <mxCell id="3GOB4Lr5eAtQApqx4ZVT-2" value="" style="endArrow=none;html=1;rounded=0;entryX=0;entryY=0.5;entryDx=0;entryDy=0;exitX=1;exitY=0.5;exitDx=0;exitDy=0;" edge="1" parent="1" source="4JDZarzx-ppBLxx8kTgk-2" target="4JDZarzx-ppBLxx8kTgk-4">
          <mxGeometry width="50" height="50" relative="1" as="geometry">
            <mxPoint x="170" y="260" as="sourcePoint" />
            <mxPoint x="220" y="210" as="targetPoint" />
          </mxGeometry>
        </mxCell>
        <mxCell id="3GOB4Lr5eAtQApqx4ZVT-3" value="" style="endArrow=none;html=1;rounded=0;entryX=1;entryY=0.5;entryDx=0;entryDy=0;exitX=0.5;exitY=0;exitDx=0;exitDy=0;" edge="1" parent="1" source="4JDZarzx-ppBLxx8kTgk-7" target="4JDZarzx-ppBLxx8kTgk-4">
          <mxGeometry width="50" height="50" relative="1" as="geometry">
            <mxPoint x="520" y="310" as="sourcePoint" />
            <mxPoint x="570" y="260" as="targetPoint" />
            <Array as="points">
              <mxPoint x="540" y="130" />
            </Array>
          </mxGeometry>
        </mxCell>
        <mxCell id="aqDvwJTX1pPWqYhEhCEZ-1" value="1..N" style="text;html=1;align=center;verticalAlign=middle;whiteSpace=wrap;rounded=0;" vertex="1" parent="1">
          <mxGeometry x="430" y="260" width="60" height="30" as="geometry" />
        </mxCell>
        <mxCell id="aqDvwJTX1pPWqYhEhCEZ-2" value="1..1" style="text;html=1;align=center;verticalAlign=middle;whiteSpace=wrap;rounded=0;" vertex="1" parent="1">
          <mxGeometry x="349" y="260" width="60" height="30" as="geometry" />
        </mxCell>
        <mxCell id="aqDvwJTX1pPWqYhEhCEZ-3" value="1..1" style="text;html=1;align=center;verticalAlign=middle;whiteSpace=wrap;rounded=0;" vertex="1" parent="1">
          <mxGeometry x="289" y="235" width="60" height="30" as="geometry" />
        </mxCell>
        <mxCell id="3GOB4Lr5eAtQApqx4ZVT-14" value="1..N" style="text;html=1;align=center;verticalAlign=middle;whiteSpace=wrap;rounded=0;" vertex="1" parent="1">
          <mxGeometry x="288" y="158" width="60" height="30" as="geometry" />
        </mxCell>
        <mxCell id="3GOB4Lr5eAtQApqx4ZVT-15" value="0..1" style="text;html=1;align=center;verticalAlign=middle;whiteSpace=wrap;rounded=0;" vertex="1" parent="1">
          <mxGeometry x="530" y="235" width="60" height="30" as="geometry" />
        </mxCell>
        <mxCell id="3GOB4Lr5eAtQApqx4ZVT-16" value="0..1" style="text;html=1;align=center;verticalAlign=middle;whiteSpace=wrap;rounded=0;" vertex="1" parent="1">
          <mxGeometry x="347" y="104" width="60" height="30" as="geometry" />
        </mxCell>
        <mxCell id="3GOB4Lr5eAtQApqx4ZVT-17" value="1..1" style="text;html=1;align=center;verticalAlign=middle;whiteSpace=wrap;rounded=0;" vertex="1" parent="1">
          <mxGeometry x="288" y="8" width="60" height="30" as="geometry" />
        </mxCell>
        <mxCell id="3GOB4Lr5eAtQApqx4ZVT-18" value="1..N" style="text;html=1;align=center;verticalAlign=middle;whiteSpace=wrap;rounded=0;" vertex="1" parent="1">
          <mxGeometry x="287" y="74" width="60" height="30" as="geometry" />
        </mxCell>
        <mxCell id="3GOB4Lr5eAtQApqx4ZVT-19" value="1..1" style="text;html=1;align=center;verticalAlign=middle;whiteSpace=wrap;rounded=0;" vertex="1" parent="1">
          <mxGeometry x="117" y="128" width="60" height="30" as="geometry" />
        </mxCell>
        <mxCell id="3GOB4Lr5eAtQApqx4ZVT-20" value="1..1" style="text;html=1;align=center;verticalAlign=middle;whiteSpace=wrap;rounded=0;" vertex="1" parent="1">
          <mxGeometry x="193" y="128" width="60" height="30" as="geometry" />
        </mxCell>
        <mxCell id="3GOB4Lr5eAtQApqx4ZVT-21" value="id_nc" style="ellipse;whiteSpace=wrap;html=1;align=center;fontStyle=4;" vertex="1" parent="1">
          <mxGeometry x="360" y="188" width="43" height="30" as="geometry" />
        </mxCell>
        <mxCell id="3GOB4Lr5eAtQApqx4ZVT-22" value="id_checklist" style="ellipse;whiteSpace=wrap;html=1;align=center;fontStyle=4;" vertex="1" parent="1">
          <mxGeometry x="258" y="370" width="85" height="30" as="geometry" />
        </mxCell>
        <mxCell id="3GOB4Lr5eAtQApqx4ZVT-23" value="id_escalonamento" style="ellipse;whiteSpace=wrap;html=1;align=center;fontStyle=4;" vertex="1" parent="1">
          <mxGeometry x="237" y="-130" width="127" height="30" as="geometry" />
        </mxCell>
        <mxCell id="3GOB4Lr5eAtQApqx4ZVT-24" value="id_item" style="ellipse;whiteSpace=wrap;html=1;align=center;fontStyle=4;" vertex="1" parent="1">
          <mxGeometry x="670" y="275" width="70" height="30" as="geometry" />
        </mxCell>
        <mxCell id="3GOB4Lr5eAtQApqx4ZVT-25" value="id_email" style="ellipse;whiteSpace=wrap;html=1;align=center;fontStyle=4;" vertex="1" parent="1">
          <mxGeometry x="-140" y="115" width="70" height="30" as="geometry" />
        </mxCell>
        <mxCell id="3GOB4Lr5eAtQApqx4ZVT-26" value="" style="endArrow=none;html=1;rounded=0;exitX=1;exitY=1;exitDx=0;exitDy=0;entryX=0;entryY=0;entryDx=0;entryDy=0;" edge="1" parent="1" source="4JDZarzx-ppBLxx8kTgk-4" target="3GOB4Lr5eAtQApqx4ZVT-21">
          <mxGeometry relative="1" as="geometry">
            <mxPoint x="460" y="260" as="sourcePoint" />
            <mxPoint x="620" y="260" as="targetPoint" />
          </mxGeometry>
        </mxCell>
        <mxCell id="3GOB4Lr5eAtQApqx4ZVT-27" value="" style="endArrow=none;html=1;rounded=0;entryX=0;entryY=0.5;entryDx=0;entryDy=0;exitX=1;exitY=0.5;exitDx=0;exitDy=0;" edge="1" parent="1" source="4JDZarzx-ppBLxx8kTgk-7" target="3GOB4Lr5eAtQApqx4ZVT-24">
          <mxGeometry relative="1" as="geometry">
            <mxPoint x="460" y="260" as="sourcePoint" />
            <mxPoint x="620" y="260" as="targetPoint" />
          </mxGeometry>
        </mxCell>
        <mxCell id="3GOB4Lr5eAtQApqx4ZVT-28" value="" style="endArrow=none;html=1;rounded=0;entryX=0.5;entryY=1;entryDx=0;entryDy=0;exitX=0.5;exitY=0;exitDx=0;exitDy=0;" edge="1" parent="1" source="3GOB4Lr5eAtQApqx4ZVT-22" target="4JDZarzx-ppBLxx8kTgk-3">
          <mxGeometry relative="1" as="geometry">
            <mxPoint x="460" y="260" as="sourcePoint" />
            <mxPoint x="620" y="260" as="targetPoint" />
          </mxGeometry>
        </mxCell>
        <mxCell id="3GOB4Lr5eAtQApqx4ZVT-29" value="" style="endArrow=none;html=1;rounded=0;entryX=0.5;entryY=1;entryDx=0;entryDy=0;exitX=0.5;exitY=0;exitDx=0;exitDy=0;" edge="1" parent="1" source="4JDZarzx-ppBLxx8kTgk-5" target="3GOB4Lr5eAtQApqx4ZVT-23">
          <mxGeometry relative="1" as="geometry">
            <mxPoint x="460" y="260" as="sourcePoint" />
            <mxPoint x="620" y="260" as="targetPoint" />
          </mxGeometry>
        </mxCell>
        <mxCell id="3GOB4Lr5eAtQApqx4ZVT-30" value="" style="endArrow=none;html=1;rounded=0;exitX=1;exitY=0.5;exitDx=0;exitDy=0;entryX=0;entryY=0.5;entryDx=0;entryDy=0;" edge="1" parent="1" source="3GOB4Lr5eAtQApqx4ZVT-25" target="4JDZarzx-ppBLxx8kTgk-2">
          <mxGeometry relative="1" as="geometry">
            <mxPoint x="460" y="170" as="sourcePoint" />
            <mxPoint x="620" y="170" as="targetPoint" />
          </mxGeometry>
        </mxCell>
        <mxCell id="3GOB4Lr5eAtQApqx4ZVT-31" value="descricao" style="ellipse;whiteSpace=wrap;html=1;align=center;" vertex="1" parent="1">
          <mxGeometry x="379" y="46" width="70" height="28" as="geometry" />
        </mxCell>
        <mxCell id="3GOB4Lr5eAtQApqx4ZVT-33" value="" style="endArrow=none;html=1;rounded=0;entryX=0;entryY=1;entryDx=0;entryDy=0;exitX=1;exitY=0;exitDx=0;exitDy=0;" edge="1" parent="1" source="4JDZarzx-ppBLxx8kTgk-4" target="3GOB4Lr5eAtQApqx4ZVT-31">
          <mxGeometry relative="1" as="geometry">
            <mxPoint x="460" y="170" as="sourcePoint" />
            <mxPoint x="620" y="170" as="targetPoint" />
          </mxGeometry>
        </mxCell>
        <mxCell id="3GOB4Lr5eAtQApqx4ZVT-34" value="data_criacao" style="ellipse;whiteSpace=wrap;html=1;align=center;" vertex="1" parent="1">
          <mxGeometry x="390" y="158" width="100" height="28" as="geometry" />
        </mxCell>
        <mxCell id="3GOB4Lr5eAtQApqx4ZVT-35" value="" style="endArrow=none;html=1;rounded=0;exitX=1;exitY=0.75;exitDx=0;exitDy=0;entryX=0;entryY=0;entryDx=0;entryDy=0;" edge="1" parent="1" source="4JDZarzx-ppBLxx8kTgk-4" target="3GOB4Lr5eAtQApqx4ZVT-34">
          <mxGeometry relative="1" as="geometry">
            <mxPoint x="460" y="170" as="sourcePoint" />
            <mxPoint x="620" y="170" as="targetPoint" />
          </mxGeometry>
        </mxCell>
        <mxCell id="3GOB4Lr5eAtQApqx4ZVT-36" value="estado" style="ellipse;whiteSpace=wrap;html=1;align=center;" vertex="1" parent="1">
          <mxGeometry x="160" y="60" width="70" height="28" as="geometry" />
        </mxCell>
        <mxCell id="3GOB4Lr5eAtQApqx4ZVT-37" value="" style="endArrow=none;html=1;rounded=0;exitX=1;exitY=1;exitDx=0;exitDy=0;entryX=0;entryY=0;entryDx=0;entryDy=0;" edge="1" parent="1" source="3GOB4Lr5eAtQApqx4ZVT-36" target="4JDZarzx-ppBLxx8kTgk-4">
          <mxGeometry relative="1" as="geometry">
            <mxPoint x="460" y="170" as="sourcePoint" />
            <mxPoint x="620" y="170" as="targetPoint" />
          </mxGeometry>
        </mxCell>
        <mxCell id="3GOB4Lr5eAtQApqx4ZVT-38" value="prioridade" style="ellipse;whiteSpace=wrap;html=1;align=center;" vertex="1" parent="1">
          <mxGeometry x="140" y="173" width="70" height="28" as="geometry" />
        </mxCell>
        <mxCell id="3GOB4Lr5eAtQApqx4ZVT-39" value="" style="endArrow=none;html=1;rounded=0;exitX=0;exitY=1;exitDx=0;exitDy=0;entryX=1;entryY=0;entryDx=0;entryDy=0;" edge="1" parent="1" source="4JDZarzx-ppBLxx8kTgk-4" target="3GOB4Lr5eAtQApqx4ZVT-38">
          <mxGeometry relative="1" as="geometry">
            <mxPoint x="460" y="170" as="sourcePoint" />
            <mxPoint x="620" y="170" as="targetPoint" />
          </mxGeometry>
        </mxCell>
        <mxCell id="3GOB4Lr5eAtQApqx4ZVT-40" value="prazo" style="ellipse;whiteSpace=wrap;html=1;align=center;" vertex="1" parent="1">
          <mxGeometry x="160" y="-110" width="70" height="28" as="geometry" />
        </mxCell>
        <mxCell id="3GOB4Lr5eAtQApqx4ZVT-42" value="estado" style="ellipse;whiteSpace=wrap;html=1;align=center;" vertex="1" parent="1">
          <mxGeometry x="107" y="-62" width="70" height="28" as="geometry" />
        </mxCell>
        <mxCell id="3GOB4Lr5eAtQApqx4ZVT-43" value="responsavel" style="ellipse;whiteSpace=wrap;html=1;align=center;" vertex="1" parent="1">
          <mxGeometry x="120" y="-20" width="90" height="28" as="geometry" />
        </mxCell>
        <mxCell id="3GOB4Lr5eAtQApqx4ZVT-44" value="id_nc" style="ellipse;whiteSpace=wrap;html=1;align=center;" vertex="1" parent="1">
          <mxGeometry x="360" y="-100" width="60" height="28" as="geometry" />
        </mxCell>
        <mxCell id="3GOB4Lr5eAtQApqx4ZVT-45" value="data_criacao" style="ellipse;whiteSpace=wrap;html=1;align=center;" vertex="1" parent="1">
          <mxGeometry x="390" y="-62" width="100" height="28" as="geometry" />
        </mxCell>
        <mxCell id="3GOB4Lr5eAtQApqx4ZVT-46" value="data_conclusao" style="ellipse;whiteSpace=wrap;html=1;align=center;" vertex="1" parent="1">
          <mxGeometry x="380" y="-18" width="100" height="28" as="geometry" />
        </mxCell>
        <mxCell id="3GOB4Lr5eAtQApqx4ZVT-48" value="destinatario" style="ellipse;whiteSpace=wrap;html=1;align=center;" vertex="1" parent="1">
          <mxGeometry x="-120" y="173" width="90" height="28" as="geometry" />
        </mxCell>
        <mxCell id="3GOB4Lr5eAtQApqx4ZVT-49" value="" style="endArrow=none;html=1;rounded=0;exitX=1;exitY=0;exitDx=0;exitDy=0;entryX=0;entryY=1;entryDx=0;entryDy=0;" edge="1" parent="1" source="3GOB4Lr5eAtQApqx4ZVT-48" target="4JDZarzx-ppBLxx8kTgk-2">
          <mxGeometry relative="1" as="geometry">
            <mxPoint x="460" y="170" as="sourcePoint" />
            <mxPoint x="620" y="170" as="targetPoint" />
          </mxGeometry>
        </mxCell>
        <mxCell id="3GOB4Lr5eAtQApqx4ZVT-50" value="remetente" style="ellipse;whiteSpace=wrap;html=1;align=center;" vertex="1" parent="1">
          <mxGeometry x="-50" y="210" width="90" height="28" as="geometry" />
        </mxCell>
        <mxCell id="aqDvwJTX1pPWqYhEhCEZ-4" value="" style="endArrow=none;html=1;rounded=0;exitX=1;exitY=0.5;exitDx=0;exitDy=0;entryX=0;entryY=0.5;entryDx=0;entryDy=0;" edge="1" parent="1" source="3GOB4Lr5eAtQApqx4ZVT-43" target="4JDZarzx-ppBLxx8kTgk-5">
          <mxGeometry width="50" height="50" relative="1" as="geometry">
            <mxPoint y="-20" as="sourcePoint" />
            <mxPoint x="50" y="-70" as="targetPoint" />
          </mxGeometry>
        </mxCell>
        <mxCell id="aqDvwJTX1pPWqYhEhCEZ-5" value="" style="endArrow=none;html=1;rounded=0;exitX=1.003;exitY=0.68;exitDx=0;exitDy=0;exitPerimeter=0;entryX=0.006;entryY=0.175;entryDx=0;entryDy=0;entryPerimeter=0;" edge="1" parent="1" source="3GOB4Lr5eAtQApqx4ZVT-42" target="4JDZarzx-ppBLxx8kTgk-5">
          <mxGeometry width="50" height="50" relative="1" as="geometry">
            <mxPoint x="80" y="-50" as="sourcePoint" />
            <mxPoint x="130" y="-100" as="targetPoint" />
          </mxGeometry>
        </mxCell>
        <mxCell id="3GOB4Lr5eAtQApqx4ZVT-51" value="data_envio" style="ellipse;whiteSpace=wrap;html=1;align=center;" vertex="1" parent="1">
          <mxGeometry x="-110" y="68" width="90" height="28" as="geometry" />
        </mxCell>
        <mxCell id="aqDvwJTX1pPWqYhEhCEZ-6" value="" style="endArrow=none;html=1;rounded=0;exitX=1;exitY=1;exitDx=0;exitDy=0;entryX=0;entryY=0;entryDx=0;entryDy=0;" edge="1" parent="1" source="3GOB4Lr5eAtQApqx4ZVT-40" target="4JDZarzx-ppBLxx8kTgk-5">
          <mxGeometry width="50" height="50" relative="1" as="geometry">
            <mxPoint x="300" y="-240" as="sourcePoint" />
            <mxPoint x="350" y="-290" as="targetPoint" />
          </mxGeometry>
        </mxCell>
        <mxCell id="3GOB4Lr5eAtQApqx4ZVT-52" value="id_nc" style="ellipse;whiteSpace=wrap;html=1;align=center;" vertex="1" parent="1">
          <mxGeometry x="-10" y="46" width="60" height="28" as="geometry" />
        </mxCell>
        <mxCell id="3GOB4Lr5eAtQApqx4ZVT-53" value="" style="endArrow=none;html=1;rounded=0;exitX=0.5;exitY=0;exitDx=0;exitDy=0;entryX=0.25;entryY=1;entryDx=0;entryDy=0;" edge="1" parent="1" source="3GOB4Lr5eAtQApqx4ZVT-50" target="4JDZarzx-ppBLxx8kTgk-2">
          <mxGeometry relative="1" as="geometry">
            <mxPoint x="460" y="170" as="sourcePoint" />
            <mxPoint x="620" y="170" as="targetPoint" />
          </mxGeometry>
        </mxCell>
        <mxCell id="aqDvwJTX1pPWqYhEhCEZ-7" value="" style="endArrow=none;html=1;rounded=0;exitX=1;exitY=0;exitDx=0;exitDy=0;entryX=0;entryY=1;entryDx=0;entryDy=0;" edge="1" parent="1" source="4JDZarzx-ppBLxx8kTgk-5" target="3GOB4Lr5eAtQApqx4ZVT-44">
          <mxGeometry width="50" height="50" relative="1" as="geometry">
            <mxPoint x="580" as="sourcePoint" />
            <mxPoint x="630" y="-50" as="targetPoint" />
          </mxGeometry>
        </mxCell>
        <mxCell id="aqDvwJTX1pPWqYhEhCEZ-8" value="" style="endArrow=none;html=1;rounded=0;exitX=1;exitY=0.25;exitDx=0;exitDy=0;entryX=0;entryY=0.5;entryDx=0;entryDy=0;" edge="1" parent="1" source="4JDZarzx-ppBLxx8kTgk-5" target="3GOB4Lr5eAtQApqx4ZVT-45">
          <mxGeometry width="50" height="50" relative="1" as="geometry">
            <mxPoint x="520" y="20" as="sourcePoint" />
            <mxPoint x="570" y="-30" as="targetPoint" />
          </mxGeometry>
        </mxCell>
        <mxCell id="aqDvwJTX1pPWqYhEhCEZ-9" value="" style="endArrow=none;html=1;rounded=0;exitX=1;exitY=0.75;exitDx=0;exitDy=0;entryX=0;entryY=0.5;entryDx=0;entryDy=0;" edge="1" parent="1" source="4JDZarzx-ppBLxx8kTgk-5" target="3GOB4Lr5eAtQApqx4ZVT-46">
          <mxGeometry width="50" height="50" relative="1" as="geometry">
            <mxPoint x="490" y="30" as="sourcePoint" />
            <mxPoint x="540" y="-20" as="targetPoint" />
          </mxGeometry>
        </mxCell>
        <mxCell id="3GOB4Lr5eAtQApqx4ZVT-54" value="" style="endArrow=none;html=1;rounded=0;exitX=1;exitY=1;exitDx=0;exitDy=0;entryX=0;entryY=0.25;entryDx=0;entryDy=0;" edge="1" parent="1" source="3GOB4Lr5eAtQApqx4ZVT-51" target="4JDZarzx-ppBLxx8kTgk-2">
          <mxGeometry relative="1" as="geometry">
            <mxPoint x="460" y="170" as="sourcePoint" />
            <mxPoint x="620" y="170" as="targetPoint" />
          </mxGeometry>
        </mxCell>
        <mxCell id="aqDvwJTX1pPWqYhEhCEZ-10" value="" style="endArrow=none;html=1;rounded=0;exitX=0.741;exitY=0.961;exitDx=0;exitDy=0;exitPerimeter=0;entryX=0.25;entryY=0;entryDx=0;entryDy=0;" edge="1" parent="1" source="3GOB4Lr5eAtQApqx4ZVT-52" target="4JDZarzx-ppBLxx8kTgk-2">
          <mxGeometry width="50" height="50" relative="1" as="geometry">
            <mxPoint x="10" as="sourcePoint" />
            <mxPoint x="60" y="-50" as="targetPoint" />
          </mxGeometry>
        </mxCell>
        <mxCell id="3GOB4Lr5eAtQApqx4ZVT-57" value="id_checklist" style="ellipse;whiteSpace=wrap;html=1;align=center;" vertex="1" parent="1">
          <mxGeometry x="650" y="330" width="80" height="28" as="geometry" />
        </mxCell>
        <mxCell id="3GOB4Lr5eAtQApqx4ZVT-58" value="descricao" style="ellipse;whiteSpace=wrap;html=1;align=center;" vertex="1" parent="1">
          <mxGeometry x="590" y="372" width="80" height="28" as="geometry" />
        </mxCell>
        <mxCell id="aqDvwJTX1pPWqYhEhCEZ-11" value="" style="endArrow=none;html=1;rounded=0;exitX=0;exitY=0.5;exitDx=0;exitDy=0;entryX=1;entryY=1;entryDx=0;entryDy=0;" edge="1" parent="1" source="3GOB4Lr5eAtQApqx4ZVT-57" target="4JDZarzx-ppBLxx8kTgk-7">
          <mxGeometry width="50" height="50" relative="1" as="geometry">
            <mxPoint x="690" y="220" as="sourcePoint" />
            <mxPoint x="740" y="170" as="targetPoint" />
          </mxGeometry>
        </mxCell>
        <mxCell id="aqDvwJTX1pPWqYhEhCEZ-12" value="" style="endArrow=none;html=1;rounded=0;exitX=0;exitY=0;exitDx=0;exitDy=0;entryX=0.75;entryY=1;entryDx=0;entryDy=0;" edge="1" parent="1" source="3GOB4Lr5eAtQApqx4ZVT-58" target="4JDZarzx-ppBLxx8kTgk-7">
          <mxGeometry width="50" height="50" relative="1" as="geometry">
            <mxPoint x="610" y="200" as="sourcePoint" />
            <mxPoint x="660" y="150" as="targetPoint" />
          </mxGeometry>
        </mxCell>
        <mxCell id="3GOB4Lr5eAtQApqx4ZVT-60" value="conformidade" style="ellipse;whiteSpace=wrap;html=1;align=center;" vertex="1" parent="1">
          <mxGeometry x="620" y="210" width="110" height="28" as="geometry" />
        </mxCell>
        <mxCell id="3GOB4Lr5eAtQApqx4ZVT-61" value="" style="endArrow=none;html=1;rounded=0;entryX=0;entryY=1;entryDx=0;entryDy=0;exitX=1;exitY=0;exitDx=0;exitDy=0;" edge="1" parent="1" source="4JDZarzx-ppBLxx8kTgk-7" target="3GOB4Lr5eAtQApqx4ZVT-60">
          <mxGeometry relative="1" as="geometry">
            <mxPoint x="460" y="170" as="sourcePoint" />
            <mxPoint x="620" y="170" as="targetPoint" />
          </mxGeometry>
        </mxCell>
        <mxCell id="3GOB4Lr5eAtQApqx4ZVT-63" value="nome" style="ellipse;whiteSpace=wrap;html=1;align=center;" vertex="1" parent="1">
          <mxGeometry x="343" y="344" width="57" height="28" as="geometry" />
        </mxCell>
        <mxCell id="3GOB4Lr5eAtQApqx4ZVT-64" value="descricao" style="ellipse;whiteSpace=wrap;html=1;align=center;" vertex="1" parent="1">
          <mxGeometry x="177" y="344" width="67" height="28" as="geometry" />
        </mxCell>
        <mxCell id="3GOB4Lr5eAtQApqx4ZVT-65" value="" style="endArrow=none;html=1;rounded=0;entryX=0.75;entryY=1;entryDx=0;entryDy=0;exitX=0;exitY=0;exitDx=0;exitDy=0;" edge="1" parent="1" source="3GOB4Lr5eAtQApqx4ZVT-63" target="4JDZarzx-ppBLxx8kTgk-3">
          <mxGeometry relative="1" as="geometry">
            <mxPoint x="460" y="170" as="sourcePoint" />
            <mxPoint x="340" y="330" as="targetPoint" />
          </mxGeometry>
        </mxCell>
        <mxCell id="3GOB4Lr5eAtQApqx4ZVT-66" value="data_criacao" style="ellipse;whiteSpace=wrap;html=1;align=center;" vertex="1" parent="1">
          <mxGeometry x="117" y="290" width="87" height="28" as="geometry" />
        </mxCell>
        <mxCell id="3GOB4Lr5eAtQApqx4ZVT-67" value="" style="endArrow=none;html=1;rounded=0;exitX=1;exitY=0.5;exitDx=0;exitDy=0;entryX=0;entryY=0.75;entryDx=0;entryDy=0;" edge="1" parent="1" source="3GOB4Lr5eAtQApqx4ZVT-66" target="4JDZarzx-ppBLxx8kTgk-3">
          <mxGeometry relative="1" as="geometry">
            <mxPoint x="460" y="170" as="sourcePoint" />
            <mxPoint x="620" y="170" as="targetPoint" />
          </mxGeometry>
        </mxCell>
        <mxCell id="3GOB4Lr5eAtQApqx4ZVT-68" value="" style="endArrow=none;html=1;rounded=0;exitX=0.716;exitY=0.036;exitDx=0;exitDy=0;exitPerimeter=0;entryX=0.117;entryY=1.017;entryDx=0;entryDy=0;entryPerimeter=0;" edge="1" parent="1" source="3GOB4Lr5eAtQApqx4ZVT-64" target="4JDZarzx-ppBLxx8kTgk-3">
          <mxGeometry relative="1" as="geometry">
            <mxPoint x="460" y="170" as="sourcePoint" />
            <mxPoint x="620" y="170" as="targetPoint" />
          </mxGeometry>
        </mxCell>
        <mxCell id="3GOB4Lr5eAtQApqx4ZVT-70" value="id_item" style="ellipse;whiteSpace=wrap;html=1;align=center;" vertex="1" parent="1">
          <mxGeometry x="220" y="201" width="60" height="28" as="geometry" />
        </mxCell>
        <mxCell id="3GOB4Lr5eAtQApqx4ZVT-71" value="" style="endArrow=none;html=1;rounded=0;exitX=0.25;exitY=1;exitDx=0;exitDy=0;entryX=0.5;entryY=0;entryDx=0;entryDy=0;" edge="1" parent="1" source="4JDZarzx-ppBLxx8kTgk-4" target="3GOB4Lr5eAtQApqx4ZVT-70">
          <mxGeometry relative="1" as="geometry">
            <mxPoint x="460" y="170" as="sourcePoint" />
            <mxPoint x="620" y="170" as="targetPoint" />
          </mxGeometry>
        </mxCell>
      </root>
    </mxGraphModel>
  </diagram>
</mxfile>
